<svg width="129" height="27" viewBox="0 0 129 27" fill="none" xmlns="http://www.w3.org/2000/svg">
<path d="M12.7314 4.70605C12.6175 4.66048 12.4808 4.58073 12.3213 4.4668C12.1618 4.35286 11.9339 4.25033 11.6377 4.15918C11.3415 4.04525 10.9655 3.9541 10.5098 3.88574C10.054 3.81738 9.47298 3.80599 8.7666 3.85156V0.399414C9.76921 0.422201 10.7832 0.536133 11.8086 0.741211C12.8568 0.923503 13.6999 1.21973 14.3379 1.62988C14.2012 1.92611 14.0417 2.25651 13.8594 2.62109C13.6771 2.96289 13.5062 3.29329 13.3467 3.6123C13.1872 3.90853 13.0505 4.15918 12.9365 4.36426C12.8226 4.56934 12.7542 4.68327 12.7314 4.70605ZM0.939453 7.44043C0.939453 6.43783 1.11035 5.53776 1.45215 4.74023C1.79395 3.94271 2.24967 3.24772 2.81934 2.65527C3.41178 2.04004 4.09538 1.56152 4.87012 1.21973C5.66764 0.855143 6.49935 0.615885 7.36523 0.501953V4.09082C6.63607 4.34147 6.03223 4.78581 5.55371 5.42383C5.0752 6.03906 4.83594 6.66569 4.83594 7.30371C4.83594 8.19238 5.0752 8.91016 5.55371 9.45703C6.03223 10.0039 6.63607 10.4824 7.36523 10.8926V14.7891C6.61328 14.4245 5.86133 14.0371 5.10938 13.627C4.35742 13.194 3.67383 12.6927 3.05859 12.123C2.44336 11.5534 1.93066 10.8926 1.52051 10.1406C1.13314 9.38867 0.939453 8.48861 0.939453 7.44043ZM1.48633 21.3857C1.80534 21.568 2.2041 21.7503 2.68262 21.9326C3.18392 22.0921 3.69661 22.2516 4.2207 22.4111C4.74479 22.5479 5.26888 22.6618 5.79297 22.7529C6.31706 22.8441 6.80697 22.8896 7.2627 22.8896H7.36523V26.1367H7.29688C6.75 26.1367 6.18034 26.1025 5.58789 26.0342C5.01823 25.9886 4.43717 25.8975 3.84473 25.7607C3.25228 25.624 2.68262 25.4417 2.13574 25.2139C1.61165 24.9632 1.15592 24.667 0.768555 24.3252L1.48633 21.3857ZM8.7666 11.5762C9.51855 11.918 10.2819 12.2826 11.0566 12.6699C11.8542 13.0573 12.5719 13.5358 13.21 14.1055C13.848 14.6523 14.3721 15.3245 14.7822 16.1221C15.1924 16.9196 15.3975 17.9108 15.3975 19.0957C15.3975 19.916 15.238 20.7135 14.9189 21.4883C14.6227 22.263 14.1898 22.9694 13.6201 23.6074C13.0732 24.2227 12.3896 24.7467 11.5693 25.1797C10.749 25.6126 9.81478 25.8975 8.7666 26.0342V22.7529C10.6351 22.2972 11.5693 21.0553 11.5693 19.0273C11.5693 18.2298 11.3073 17.569 10.7832 17.0449C10.2591 16.5208 9.58691 16.0309 8.7666 15.5752V11.5762Z" fill="#A18A68"/>
<path d="M38.9131 0.80957V26H34.8115V14.6523H25.3096V11.8496H34.8115V0.80957H38.9131ZM19.7383 0.80957H23.9082V26H19.7383V0.80957ZM44.7578 13.2852C44.7578 11.2572 44.9971 9.46842 45.4756 7.91895C45.9769 6.34668 46.6605 5.02507 47.5264 3.9541C48.415 2.86035 49.4518 2.02865 50.6367 1.45898C51.8444 0.866536 53.1546 0.52474 54.5674 0.433594V3.85156C53.7926 3.94271 53.0635 4.18197 52.3799 4.56934C51.6963 4.95671 51.1038 5.52637 50.6025 6.27832C50.1012 7.03027 49.7025 7.9873 49.4062 9.14941C49.11 10.3115 48.9505 11.6901 48.9277 13.2852C48.9505 14.903 49.11 16.293 49.4062 17.4551C49.7025 18.5944 50.1012 19.5514 50.6025 20.3262C51.1266 21.1009 51.7305 21.6934 52.4141 22.1035C53.0977 22.4909 53.8154 22.7188 54.5674 22.7871V26.1709C53.1774 26.0798 51.8786 25.7493 50.6709 25.1797C49.4632 24.5872 48.415 23.7555 47.5264 22.6846C46.6605 21.5908 45.9769 20.2578 45.4756 18.6855C44.9971 17.1133 44.7578 15.3132 44.7578 13.2852ZM55.9346 0.433594C57.3245 0.501953 58.612 0.832357 59.7969 1.4248C61.0046 2.01725 62.0413 2.86035 62.9072 3.9541C63.7959 5.02507 64.4909 6.34668 64.9922 7.91895C65.4935 9.46842 65.7441 11.2572 65.7441 13.2852C65.7441 15.3132 65.4935 17.1133 64.9922 18.6855C64.4909 20.2578 63.7959 21.5908 62.9072 22.6846C62.0413 23.7555 61.016 24.5872 59.8311 25.1797C58.6462 25.7493 57.3473 26.0798 55.9346 26.1709V22.7871C56.7093 22.696 57.4385 22.4567 58.1221 22.0693C58.8057 21.6592 59.3981 21.0781 59.8994 20.3262C60.4007 19.5514 60.7995 18.5944 61.0957 17.4551C61.3919 16.293 61.5514 14.903 61.5742 13.2852C61.5514 11.6673 61.3919 10.2887 61.0957 9.14941C60.7995 7.9873 60.3893 7.03027 59.8652 6.27832C59.3639 5.50358 58.7715 4.92253 58.0879 4.53516C57.4043 4.125 56.6865 3.88574 55.9346 3.81738V0.433594ZM71.4863 0.80957H75.5879V26H71.4863V0.80957ZM78.7324 0.80957C79.8034 0.80957 80.863 0.980469 81.9111 1.32227C82.9593 1.66406 83.8936 2.17676 84.7139 2.86035C85.557 3.54395 86.2292 4.37565 86.7305 5.35547C87.2546 6.3125 87.5166 7.39486 87.5166 8.60254C87.5166 9.87858 87.3001 11.0407 86.8672 12.0889C86.4342 13.1143 85.8304 13.9801 85.0557 14.6865C84.2809 15.3929 83.3467 15.9398 82.2529 16.3271C81.1592 16.7145 79.9515 16.9082 78.6299 16.9082H76.9893V13.9004H79.3477C79.849 13.9004 80.3389 13.8206 80.8174 13.6611C81.3187 13.4788 81.7744 13.194 82.1846 12.8066C82.5947 12.4193 82.9251 11.8838 83.1758 11.2002C83.4264 10.4938 83.5518 9.62793 83.5518 8.60254C83.5518 8.19238 83.4948 7.72526 83.3809 7.20117C83.2669 6.6543 83.0277 6.1416 82.6631 5.66309C82.3213 5.16178 81.8314 4.75163 81.1934 4.43262C80.5553 4.09082 79.7122 3.91992 78.6641 3.91992H76.9893V0.80957H78.7324ZM92.165 0.80957H96.2666V26H92.165V0.80957ZM99.4111 0.80957C100.482 0.80957 101.542 0.980469 102.59 1.32227C103.638 1.66406 104.572 2.17676 105.393 2.86035C106.236 3.54395 106.908 4.37565 107.409 5.35547C107.933 6.3125 108.195 7.39486 108.195 8.60254C108.195 9.87858 107.979 11.0407 107.546 12.0889C107.113 13.1143 106.509 13.9801 105.734 14.6865C104.96 15.3929 104.025 15.9398 102.932 16.3271C101.838 16.7145 100.63 16.9082 99.3086 16.9082H97.668V13.9004H100.026C100.528 13.9004 101.018 13.8206 101.496 13.6611C101.997 13.4788 102.453 13.194 102.863 12.8066C103.273 12.4193 103.604 11.8838 103.854 11.2002C104.105 10.4938 104.23 9.62793 104.23 8.60254C104.23 8.19238 104.174 7.72526 104.06 7.20117C103.946 6.6543 103.706 6.1416 103.342 5.66309C103 5.16178 102.51 4.75163 101.872 4.43262C101.234 4.09082 100.391 3.91992 99.3428 3.91992H97.668V0.80957H99.4111ZM112.98 0.80957H117.15V26H112.98V0.80957ZM127.678 14.6523H118.552V11.8496H127.678V14.6523ZM118.552 22.8896H128.737V26H118.552V22.8896ZM128.737 0.80957V3.91992H118.552V0.80957H128.737Z" fill="black"/>
</svg>
